<svg xmlns="http://www.w3.org/2000/svg" width="73.127" height="73.125" viewBox="0 0 73.127 73.125">
  <g id="Group_9258" data-name="Group 9258" transform="translate(0)">
    <path id="Union_16" data-name="Union 16" d="M10.12,34.935H0c0-4.639,2.136-8.4,7.084-8.4a6.575,6.575,0,0,1,4.827,1.807,7.261,7.261,0,0,1,2.846-2.425h0l.026-.012h0l.026-.012h0l.025-.012h0l.025-.012h0l.026-.012h0q.11-.05.223-.1h0l.027-.011h0l.025-.01,0,0,.024-.01,0,0,.024-.009,0,0,.023-.009.005,0,.024-.009,0,0,.025-.01h0l.174-.065h0l.028-.01h0l.026-.009.005,0,.024-.008,0,0,.024-.008.006,0,.023-.008.006,0,.023-.008.007,0,.023-.008.006,0,.023-.008.006,0,.024-.008.006,0,.027-.008h0l.121-.037h0l.028-.008.005,0,.024-.007.007,0L16,25.448l.008,0,.022-.006.008,0,.022-.006.008,0,.022-.006.009,0,.022-.006.009,0,.022-.006.009,0,.023-.006.007,0,.024-.006.007,0,.028-.007h0l.094-.024h0l.029-.007h.005l.026-.006.007,0,.024-.006.009,0,.022-.005.01,0,.022,0,.01,0,.021,0,.011,0,.021,0,.01,0,.021,0,.011,0,.021,0,.011,0,.021,0,.011,0,.023,0,.009,0,.026-.005h.006l.065-.013h0l.03-.006h.008l.024,0,.011,0,.022,0,.011,0,.021,0,.012,0,.02,0,.012,0,.02,0,.013,0,.02,0,.012,0,.021,0,.012,0,.021,0,.011,0,.022,0,.011,0,.022,0,.011,0,.022,0,.011,0,.03,0h0l.034,0h0l.03,0h.01l.023,0,.013,0,.021,0,.013,0,.02,0,.014,0,.019,0,.015,0,.018,0,.016,0,.019,0,.015,0,.019,0,.015,0,.02,0,.014,0,.02,0h.014l.022,0h.012l.022,0h.013l.021,0h.013l.028,0h.009l.032,0H17.8l.025,0h.014l.021,0h.015l.02,0h.015l.02,0h.333l.036,0h1.329l.022,0h.013l.022,0H19.7l.022,0h.013l.022,0h.011l.023,0h.01l.025,0h.007l.027,0h0l.161.016h0l.029,0h0l.028,0h.005l.028,0h.005l.028,0h.005l.028,0h0l.029,0h0l.029,0h0l.031,0h0a7.568,7.568,0,0,1,5.447,3.163,6.58,6.58,0,0,1,4.813-1.793c4.948,0,7.084,3.76,7.084,8.4H10.12ZM36.1,33.469C35.805,30.976,34.6,28,30.547,28a5.2,5.2,0,0,0-3.8,1.376l-.26.257a11.655,11.655,0,0,1,.982,3.832Zm-10.086,0a9.491,9.491,0,0,0-1.183-3.895l-.277-.394a6.524,6.524,0,0,0-5.666-2.637h-.121a6.522,6.522,0,0,0-5.674,2.648l-.276.394a9.5,9.5,0,0,0-1.176,3.884Zm-24.481,0h8.655a11.668,11.668,0,0,1,.974-3.815L10.9,29.39A5.192,5.192,0,0,0,7.084,28C3.027,28,1.826,30.976,1.532,33.469ZM26.349,21.785a4.345,4.345,0,1,1,4.345,4.4A4.373,4.373,0,0,1,26.349,21.785Zm1.448,0a2.9,2.9,0,1,0,2.9-2.933A2.919,2.919,0,0,0,27.8,21.785Zm-25.2,0a4.345,4.345,0,1,1,4.345,4.4A4.373,4.373,0,0,1,2.6,21.785Zm1.448,0a2.9,2.9,0,1,0,2.9-2.933A2.919,2.919,0,0,0,4.044,21.785ZM13.024,19a5.794,5.794,0,1,1,5.793,5.867A5.83,5.83,0,0,1,13.024,19Zm1.448,0a4.345,4.345,0,1,0,4.345-4.4A4.378,4.378,0,0,0,14.473,19ZM32.5,14.34l-1.443-1.056L29.613,14.34a.785.785,0,0,1-.465.154.806.806,0,0,1-.758-1.059l.549-1.7L27.5,10.685a.81.81,0,0,1-.291-.9.8.8,0,0,1,.758-.558h1.779L30.3,7.519a.794.794,0,0,1,1.514,0l.551,1.706h1.779a.8.8,0,0,1,.758.558.81.81,0,0,1-.292.9l-1.435,1.05.549,1.7a.806.806,0,0,1-.758,1.059A.785.785,0,0,1,32.5,14.34ZM29.66,11a.81.81,0,0,1,.291.9l-.407,1.261,1.046-.8a.8.8,0,0,1,.933,0l1.03.753L32.162,11.9a.81.81,0,0,1,.291-.9l1.019-.746H32.207a.8.8,0,0,1-.757-.556l-.393-1.218L30.663,9.7a.8.8,0,0,1-.757.556H28.641ZM8.022,14.34,6.579,13.284,5.136,14.34a.785.785,0,0,1-.465.154.806.806,0,0,1-.758-1.059l.549-1.7-1.435-1.05a.81.81,0,0,1-.292-.9.8.8,0,0,1,.758-.558H5.271l.551-1.706a.794.794,0,0,1,1.514,0l.551,1.706H9.666a.8.8,0,0,1,.758.558.81.81,0,0,1-.291.9L8.7,11.735l.549,1.7a.806.806,0,0,1-.758,1.059A.785.785,0,0,1,8.022,14.34ZM5.183,11a.81.81,0,0,1,.291.9l-.407,1.261,1.046-.8a.8.8,0,0,1,.933,0l1.03.753L7.684,11.9a.81.81,0,0,1,.291-.9l1.019-.746H7.729A.8.8,0,0,1,6.972,9.7L6.579,8.477,6.186,9.7a.8.8,0,0,1-.757.556H4.164Zm16.154.026L18.818,9.172,16.3,11.023a.856.856,0,0,1-.509.169.879.879,0,0,1-.827-1.154l.962-2.994-2.518-1.85a.884.884,0,0,1-.316-.984.868.868,0,0,1,.827-.608h3.113L17.991.608a.866.866,0,0,1,1.653,0L20.606,3.6h3.113a.868.868,0,0,1,.827.608.884.884,0,0,1-.316.984l-2.517,1.85.962,2.994a.879.879,0,0,1-.827,1.154A.856.856,0,0,1,21.337,11.023ZM19.328,8.1,21.3,9.543,20.545,7.2a.884.884,0,0,1,.316-.984l1.966-1.445H20.4a.868.868,0,0,1-.826-.608l-.752-2.34-.752,2.34a.868.868,0,0,1-.826.608H14.809l1.966,1.445a.884.884,0,0,1,.316.984l-.751,2.338L18.307,8.1a.874.874,0,0,1,1.021,0Z" transform="translate(17.748 19.095)" fill="#018075"/>
    <g id="Untitled-2" transform="translate(0 0)">
      <path id="Path_33971" data-name="Path 33971" d="M43.841,61.03l-.888,1.221-.673-.49.888-1.221.673.49Z" transform="translate(-28.472 -40.772)" fill="#018075"/>
      <path id="Path_33972" data-name="Path 33972" d="M142.265,36.915l-1.375-.63.346-.754,1.375.63Z" transform="translate(-94.882 -23.929)" fill="#018075"/>
      <path id="Path_33973" data-name="Path 33973" d="M73.781,188.521l-1.371-.637.349-.754,1.371.637Z" transform="translate(-48.763 -126.024)" fill="#018075"/>
      <path id="Path_33974" data-name="Path 33974" d="M177.768,159.737l-.885,1.228-.673-.487.885-1.228Z" transform="translate(-118.668 -107.248)" fill="#018075"/>
      <path id="Path_33975" data-name="Path 33975" d="M46.02,71.877A36.558,36.558,0,1,1,71.872,27.1,36.6,36.6,0,0,1,46.02,71.877ZM27.665,3.371a34.364,34.364,0,1,0,42.088,24.3A34.4,34.4,0,0,0,27.665,3.371Z" transform="translate(0.005 -0.002)" fill="#018075"/>
      <path id="Path_33976" data-name="Path 33976" d="M166.4,73.538l-1.9-1.1A27.687,27.687,0,0,0,154.37,34.62l1.1-1.9a29.88,29.88,0,0,1,10.939,40.818Z" transform="translate(-103.96 -22.036)" fill="#018075"/>
      <path id="Path_33977" data-name="Path 33977" d="M35.376,107.038A29.88,29.88,0,0,1,24.437,66.22l1.9,1.1a27.687,27.687,0,0,0,10.133,37.82l-1.1,1.9Z" transform="translate(-13.751 -44.597)" fill="#018075"/>
    </g>
  </g>
</svg>
