<svg xmlns="http://www.w3.org/2000/svg" width="73.127" height="73.125" viewBox="0 0 73.127 73.125">
  <g id="Group_9261" data-name="Group 9261" transform="translate(0)">
    <path id="Union_13" data-name="Union 13" d="M0,20.122A20.122,20.122,0,1,1,20.122,40.243,20.122,20.122,0,0,1,0,20.122ZM20.122,36.336A16.207,16.207,0,0,0,32.515,9.678L9.9,32.7A16.138,16.138,0,0,0,20.122,36.336ZM3.907,20.122a16.13,16.13,0,0,0,3.282,9.77L29.655,7.013A16.207,16.207,0,0,0,3.907,20.122ZM18.455,33.2V31.716a6.924,6.924,0,0,1-4.266-1.642l1.893-2.237c2.168,1.833,5.259.56,6.155.126A4.781,4.781,0,0,0,24.2,24.937c.06-.745-.315-1.116-1.323-1.911a10.637,10.637,0,0,1-1.049-.909l2.105-2.038a7.689,7.689,0,0,0,.76.647c1.043.823,2.618,2.067,2.428,4.444a7.654,7.654,0,0,1-3.488,5.364,12.522,12.522,0,0,1-2.252.838V33.2a1.465,1.465,0,0,1-2.93,0Zm-3.9-13.635c-1.043-.823-2.618-2.067-2.428-4.444a7.654,7.654,0,0,1,3.488-5.364,12.381,12.381,0,0,1,2.844-.979V7.091a1.465,1.465,0,0,1,2.93,0V8.623a6.847,6.847,0,0,1,3.674,1.594l-1.893,2.237c-2.168-1.833-5.259-.56-6.155-.126a4.782,4.782,0,0,0-1.969,3.026c-.06.745.315,1.116,1.323,1.911a10.636,10.636,0,0,1,1.049.909L15.31,20.212A7.69,7.69,0,0,0,14.55,19.565Z" transform="translate(16.442 16.441)" fill="#078379"/>
    <g id="Untitled-2" transform="translate(0 0)">
      <path id="Path_33971" data-name="Path 33971" d="M43.841,61.03l-.888,1.221-.673-.49.888-1.221Z" transform="translate(-28.472 -40.772)" fill="#078379"/>
      <path id="Path_33972" data-name="Path 33972" d="M142.265,36.915l-1.375-.63.346-.754,1.375.63Z" transform="translate(-94.882 -23.929)" fill="#078379"/>
      <path id="Path_33973" data-name="Path 33973" d="M73.781,188.521l-1.371-.637.349-.754,1.371.637Z" transform="translate(-48.764 -126.024)" fill="#078379"/>
      <path id="Path_33974" data-name="Path 33974" d="M177.768,159.737l-.885,1.228-.673-.487.885-1.228Z" transform="translate(-118.668 -107.249)" fill="#078379"/>
      <path id="Path_33975" data-name="Path 33975" d="M46.02,71.877A36.558,36.558,0,1,1,71.872,27.1,36.6,36.6,0,0,1,46.02,71.877ZM27.665,3.371a34.364,34.364,0,1,0,42.088,24.3A34.4,34.4,0,0,0,27.665,3.371Z" transform="translate(0.005 -0.002)" fill="#078379"/>
      <path id="Path_33976" data-name="Path 33976" d="M166.4,73.538l-1.9-1.1A27.687,27.687,0,0,0,154.37,34.62l1.1-1.9a29.88,29.88,0,0,1,10.939,40.818Z" transform="translate(-103.96 -22.036)" fill="#078379"/>
      <path id="Path_33977" data-name="Path 33977" d="M35.376,107.038A29.88,29.88,0,0,1,24.437,66.22l1.9,1.1a27.687,27.687,0,0,0,10.133,37.82l-1.1,1.9Z" transform="translate(-13.751 -44.597)" fill="#078379"/>
    </g>
  </g>
</svg>
