<svg id="Group_9260" data-name="Group 9260" xmlns="http://www.w3.org/2000/svg" width="73.127" height="73.125" viewBox="0 0 73.127 73.125">
  <path id="Union_15" data-name="Union 15" d="M14.82,37.9A8.463,8.463,0,0,0,10.8,36.272a8.472,8.472,0,0,1-7.32-7.194,8.469,8.469,0,0,0-1.7-4A8.474,8.474,0,0,1,1.691,14.82,8.47,8.47,0,0,0,3.317,10.8a8.472,8.472,0,0,1,7.194-7.32,8.487,8.487,0,0,0,4-1.7A8.5,8.5,0,0,1,19.7,0a8.393,8.393,0,0,1,5.072,1.691,8.47,8.47,0,0,0,4.024,1.625,8.472,8.472,0,0,1,7.32,7.194,8.483,8.483,0,0,0,1.7,4,8.471,8.471,0,0,1,.09,10.263,8.467,8.467,0,0,0-1.625,4.024,8.472,8.472,0,0,1-7.194,7.32,8.466,8.466,0,0,0-4,1.7,8.5,8.5,0,0,1-5.19,1.781A8.393,8.393,0,0,1,14.82,37.9Zm-8.85-18.2A13.722,13.722,0,1,0,19.693,5.971,13.738,13.738,0,0,0,5.971,19.693Zm10.113,8.543a9.3,9.3,0,1,1,3.609.729A9.24,9.24,0,0,1,16.084,28.236Zm-1.4-9.883a1.393,1.393,0,0,0,.087,1.965L17.92,23.2a1.391,1.391,0,0,0,1.925-.046L24.8,18.169a1.391,1.391,0,0,0-1.973-1.96l-4.013,4.037-2.168-1.982a1.39,1.39,0,0,0-1.965.088Z" transform="translate(16.654 16.654)" fill="#028176"/>
  <g id="Untitled-2" transform="translate(0 0)">
    <path id="Path_33971" data-name="Path 33971" d="M43.841,61.03l-.888,1.221-.673-.49.888-1.221Z" transform="translate(-28.472 -40.772)" fill="#028176"/>
    <path id="Path_33972" data-name="Path 33972" d="M142.265,36.915l-1.375-.63.346-.754,1.375.63Z" transform="translate(-94.882 -23.929)" fill="#028176"/>
    <path id="Path_33973" data-name="Path 33973" d="M73.781,188.521l-1.371-.637.349-.754,1.371.637Z" transform="translate(-48.763 -126.024)" fill="#028176"/>
    <path id="Path_33974" data-name="Path 33974" d="M177.768,159.737l-.885,1.228-.673-.487.885-1.228Z" transform="translate(-118.668 -107.248)" fill="#028176"/>
    <path id="Path_33975" data-name="Path 33975" d="M46.02,71.877A36.558,36.558,0,1,1,71.872,27.1,36.6,36.6,0,0,1,46.02,71.877ZM27.665,3.371a34.364,34.364,0,1,0,42.088,24.3A34.4,34.4,0,0,0,27.665,3.371Z" transform="translate(0.005 -0.002)" fill="#028176"/>
    <path id="Path_33976" data-name="Path 33976" d="M166.4,73.538l-1.9-1.1A27.687,27.687,0,0,0,154.37,34.62l1.1-1.9a29.88,29.88,0,0,1,10.939,40.818Z" transform="translate(-103.96 -22.036)" fill="#028176"/>
    <path id="Path_33977" data-name="Path 33977" d="M35.376,107.038A29.88,29.88,0,0,1,24.437,66.22l1.9,1.1a27.687,27.687,0,0,0,10.133,37.82l-1.1,1.9Z" transform="translate(-13.751 -44.597)" fill="#028176"/>
  </g>
</svg>
