<svg id="Group_9255" data-name="Group 9255" xmlns="http://www.w3.org/2000/svg" width="73.127" height="73.125" viewBox="0 0 73.127 73.125">
  <path id="Union_14" data-name="Union 14" d="M8.5,40.243a.782.782,0,0,1-.548-.224L.234,32.436a.783.783,0,0,1-.016-1.1l3.4-3.536V13.064a.79.79,0,0,1,.027-.206c.022-.08.572-1.967,3.659-1.967a4.389,4.389,0,0,1,4.077,2.882L12.427,17.9,24.81,5.506a3.336,3.336,0,0,1,2.121-.768,3.717,3.717,0,0,1,2.337.885,3.179,3.179,0,0,1,.565,4.509L25.2,14.716a3.626,3.626,0,0,1,1.572.942,3.693,3.693,0,0,1,.881,3.361,3.524,3.524,0,0,1,2.179,1.251,3.745,3.745,0,0,1,.409,3.1A3.979,3.979,0,0,1,32.421,24.7c1.4,1.686.13,3.925.075,4.02a.783.783,0,0,1-.127.164L22.7,38.434a6.163,6.163,0,0,1-3.844,1.81ZM5.18,13.226V28.114a.783.783,0,0,1-.218.542l-3.079,3.2L8.82,38.678H18.855A4.653,4.653,0,0,0,21.59,37.33l5.491-5.421a3.432,3.432,0,0,1-1.593-.935,2.68,2.68,0,0,1-.685-2.565,2.946,2.946,0,0,1-2.873-.9,3.256,3.256,0,0,1-.743-2.77,3.075,3.075,0,0,1-2.841-.814,3.247,3.247,0,0,1-.368-4.179l4.581-4.6q.023-.023.047-.043a.775.775,0,0,1,.108-.133L28.661,9.1A1.614,1.614,0,0,0,28.3,6.848,2.2,2.2,0,0,0,26.932,6.3a1.816,1.816,0,0,0-1.059.35l-12.8,12.81a11.433,11.433,0,0,1,2.324,5.19c.256,2.854-2.176,5.872-2.28,6a.782.782,0,0,1-1.212-.989c.021-.026,2.133-2.655,1.934-4.871a10.589,10.589,0,0,0-2.277-4.726.783.783,0,0,1-.313-.451L9.881,14.22A2.837,2.837,0,0,0,7.3,12.455C5.775,12.455,5.3,13.02,5.18,13.226ZM26.923,27.474c-.012.015-1.172,1.551-.329,2.394a1.6,1.6,0,0,0,1.843.456.778.778,0,0,1,.343-.092l2.405-2.375c.151-.306.638-1.428.034-2.152a2.463,2.463,0,0,0-1.577-.856l-2.633,2.485A.786.786,0,0,1,26.923,27.474ZM23.174,23.8c-.04.062-1,1.605-.066,2.682.7.8,2.011.254,2.544-.018l2.815-2.657a.554.554,0,0,1,.02-.057c.184-.452.6-1.885.106-2.519a2.4,2.4,0,0,0-1.818-.729c-.026,0-.053,0-.08,0l-3.481,3.236Q23.2,23.767,23.174,23.8Zm.49-7.548-4.494,4.5a1.72,1.72,0,0,0,.281,2.071c.793.794,1.96.284,2.427.027a.792.792,0,0,1,.065-.068l4.124-3.833a2.321,2.321,0,0,0-.4-2.181,1.986,1.986,0,0,0-1.442-.619,2.179,2.179,0,0,0-.514.062Q23.686,16.23,23.664,16.251ZM15.818,7.919a1.174,1.174,0,0,1-.04-1.659l1.975-2.075a1.173,1.173,0,0,1,1.7,1.619L17.477,7.879a1.173,1.173,0,0,1-1.658.04Zm-9.256-.04L4.587,5.8a1.173,1.173,0,0,1,1.7-1.619L8.261,6.26a1.173,1.173,0,1,1-1.7,1.619ZM10.846,6.9V1.174a1.173,1.173,0,1,1,2.346,0V6.9a1.173,1.173,0,1,1-2.346,0Z" transform="translate(20.025 16.441)" fill="#018075"/>
  <g id="Untitled-2" transform="translate(0 0)">
    <path id="Path_33971" data-name="Path 33971" d="M43.841,61.03l-.888,1.221-.673-.49.888-1.221Z" transform="translate(-28.472 -40.772)" fill="#018075"/>
    <path id="Path_33972" data-name="Path 33972" d="M142.265,36.915l-1.375-.63.346-.754,1.375.63Z" transform="translate(-94.882 -23.929)" fill="#018075"/>
    <path id="Path_33973" data-name="Path 33973" d="M73.781,188.521l-1.371-.637.349-.754,1.371.637Z" transform="translate(-48.763 -126.024)" fill="#018075"/>
    <path id="Path_33974" data-name="Path 33974" d="M177.768,159.737l-.885,1.228-.673-.487.885-1.228Z" transform="translate(-118.668 -107.249)" fill="#018075"/>
    <path id="Path_33975" data-name="Path 33975" d="M46.02,71.877A36.558,36.558,0,1,1,71.872,27.1,36.6,36.6,0,0,1,46.02,71.877ZM27.665,3.371a34.364,34.364,0,1,0,42.088,24.3A34.4,34.4,0,0,0,27.665,3.371Z" transform="translate(0.005 -0.002)" fill="#018075"/>
    <path id="Path_33976" data-name="Path 33976" d="M166.4,73.538l-1.9-1.1A27.687,27.687,0,0,0,154.37,34.62l1.1-1.9a29.88,29.88,0,0,1,10.939,40.818Z" transform="translate(-103.96 -22.036)" fill="#018075"/>
    <path id="Path_33977" data-name="Path 33977" d="M35.376,107.038A29.88,29.88,0,0,1,24.437,66.22l1.9,1.1a27.687,27.687,0,0,0,10.133,37.82l-1.1,1.9Z" transform="translate(-13.751 -44.597)" fill="#018075"/>
  </g>
</svg>
