<svg id="Group_141" data-name="Group 141" xmlns="http://www.w3.org/2000/svg" width="11.561" height="14.715" viewBox="0 0 11.561 14.715">
  <path id="Rectangle_102" data-name="Rectangle 102" d="M.526.526V9.985H1.577A1.052,1.052,0,0,0,2.628,8.934V.526H.526M0,0H3.153V8.934A1.577,1.577,0,0,1,1.577,10.51H.526A.526.526,0,0,1,0,9.985Z" transform="translate(8.408 4.204)" fill="#171717"/>
  <path id="Rectangle_103" data-name="Rectangle 103" d="M.526.526V14.189H8.408V.526H.526M.526,0H8.408a.526.526,0,0,1,.526.526V14.715H.526A.526.526,0,0,1,0,14.189V.526A.526.526,0,0,1,.526,0Z" transform="translate(0 0)" fill="#171717"/>
  <path id="Rectangle_104" data-name="Rectangle 104" d="M1.051.526a.526.526,0,0,0-.526.526V2.1a.526.526,0,0,0,.526.526h4.73A.526.526,0,0,0,6.306,2.1V1.051A.526.526,0,0,0,5.781.526H1.051m0-.526h4.73A1.051,1.051,0,0,1,6.832,1.051V2.1A1.051,1.051,0,0,1,5.781,3.153H1.051A1.051,1.051,0,0,1,0,2.1V1.051A1.051,1.051,0,0,1,1.051,0Z" transform="translate(1.051 1.577)" fill="#171717"/>
  <path id="Path_392" data-name="Path 392" d="M1084.435,32.342h-1.47a.263.263,0,1,1,0-.526h1.47a.263.263,0,1,1,0,.526Z" transform="translate(-1077.185 -24.985)" fill="#171717"/>
  <path id="Path_400" data-name="Path 400" d="M1084.435,32.342h-1.47a.263.263,0,1,1,0-.526h1.47a.263.263,0,1,1,0,.526Z" transform="translate(-1077.185 -26.036)" fill="#171717"/>
  <path id="Path_393" data-name="Path 393" d="M1084.435,32.342h-1.47a.263.263,0,1,1,0-.526h1.47a.263.263,0,1,1,0,.526Z" transform="translate(-1077.185 -23.934)" fill="#171717"/>
  <path id="Path_394" data-name="Path 394" d="M1084.435,32.342h-1.47a.263.263,0,1,1,0-.526h1.47a.263.263,0,1,1,0,.526Z" transform="translate(-1077.185 -22.883)" fill="#171717"/>
  <path id="Path_397" data-name="Path 397" d="M1088.64,32.342h-5.674a.263.263,0,1,1,0-.526h5.674a.263.263,0,0,1,0,.526Z" transform="translate(-1081.389 -21.184)" fill="#171717"/>
  <path id="Path_399" data-name="Path 399" d="M1088.64,32.342h-5.674a.263.263,0,1,1,0-.526h5.674a.263.263,0,0,1,0,.526Z" transform="translate(-1081.389 -19.94)" fill="#171717"/>
  <g id="Group_89" data-name="Group 89" transform="translate(1.051 5.781)">
    <path id="Ellipse_2" data-name="Ellipse 2" d="M1.051.526a.526.526,0,1,0,.526.526A.526.526,0,0,0,1.051.526m0-.526A1.051,1.051,0,1,1,0,1.051,1.051,1.051,0,0,1,1.051,0Z" transform="translate(0.526 0)" fill="#171717"/>
    <path id="Rectangle_105" data-name="Rectangle 105" d="M1.577.526A1.052,1.052,0,0,0,.526,1.577V2.1h2.1V1.577A1.052,1.052,0,0,0,1.577.526m0-.526A1.577,1.577,0,0,1,3.153,1.577V2.1a.526.526,0,0,1-.526.526H.526A.526.526,0,0,1,0,2.1V1.577A1.577,1.577,0,0,1,1.577,0Z" transform="translate(0 1.577)" fill="#171717"/>
  </g>
</svg>
