<svg xmlns="http://www.w3.org/2000/svg" width="15.055" height="15.172" viewBox="0 0 15.055 15.172">
  <path id="power_rounded_FILL0_wght700_GRAD0_opsz48" d="M102.514,194.436a.88.88,0,0,1-.651-.266.89.89,0,0,1-.264-.652v-6.581a.917.917,0,0,1,.267-.661.875.875,0,0,1,.654-.276.864.864,0,0,1,.651.276.924.924,0,0,1,.264.661v6.581a.91.91,0,0,1-.921.918Zm0,6.737a7.356,7.356,0,0,1-2.929-.586,7.529,7.529,0,0,1-4-4A7.356,7.356,0,0,1,95,193.655a7.2,7.2,0,0,1,.488-2.626,7.07,7.07,0,0,1,1.406-2.255.936.936,0,0,1,.664-.351.922.922,0,0,1,.723.234.859.859,0,0,1,.264.654,1.1,1.1,0,0,1-.244.674,5.957,5.957,0,0,0-1.074,1.7,5.077,5.077,0,0,0-.391,1.972,5.682,5.682,0,1,0,11.365,0,5.128,5.128,0,0,0-.384-1.968,6.022,6.022,0,0,0-1.061-1.7,1.128,1.128,0,0,1-.234-.693.83.83,0,0,1,.273-.635.85.85,0,0,1,.732-.234,1.136,1.136,0,0,1,.713.391,7.173,7.173,0,0,1,1.347,2.245,7.335,7.335,0,0,1,.469,2.6,7.252,7.252,0,0,1-.6,2.929,7.7,7.7,0,0,1-1.621,2.392,7.558,7.558,0,0,1-2.392,1.611A7.356,7.356,0,0,1,102.518,201.172Z" transform="translate(-95 -186)" fill="#171717"/>
</svg>
