<svg xmlns="http://www.w3.org/2000/svg" width="15.028" height="15.246" viewBox="0 0 15.028 15.246">
  <path id="settings_FILL1_wght700_GRAD0_opsz48" d="M69.9,165.246h-2.58a.9.9,0,0,1-.573-.2.739.739,0,0,1-.287-.52l-.269-1.684a2.648,2.648,0,0,1-.529-.242,3.693,3.693,0,0,1-.493-.331l-1.541.735a.8.8,0,0,1-.618.036.826.826,0,0,1-.475-.412L61.227,160.3a.742.742,0,0,1-.1-.6.925.925,0,0,1,.331-.511l1.433-1.039a2.507,2.507,0,0,1-.027-.26q-.009-.152-.009-.26t.009-.26a2.507,2.507,0,0,1,.027-.26l-1.433-1.057a.925.925,0,0,1-.331-.511.694.694,0,0,1,.1-.582l1.308-2.329a.99.99,0,0,1,.493-.385.725.725,0,0,1,.6.027l1.577.717a3.509,3.509,0,0,1,.466-.3,2.706,2.706,0,0,1,.52-.233l.269-1.738a.739.739,0,0,1,.287-.52.9.9,0,0,1,.573-.2H69.9a.9.9,0,0,1,.573.2.739.739,0,0,1,.287.52l.269,1.72a5.439,5.439,0,0,1,.529.242,2.815,2.815,0,0,1,.493.314l1.541-.717a.769.769,0,0,1,.609-.036.839.839,0,0,1,.484.394l1.326,2.311a.759.759,0,0,1,.1.609.82.82,0,0,1-.349.5l-1.451,1.021q.018.125.036.278a2.393,2.393,0,0,1,.018.278,2.173,2.173,0,0,1-.018.269q-.018.143-.036.269l1.451,1.021a.924.924,0,0,1,.331.511.784.784,0,0,1-.081.6l-1.344,2.329a.827.827,0,0,1-.466.412.775.775,0,0,1-.609-.036l-1.559-.735a4.309,4.309,0,0,1-.475.331,2.156,2.156,0,0,1-.529.242l-.269,1.684a.739.739,0,0,1-.287.52A.9.9,0,0,1,69.9,165.246Zm-1.326-5.285a2.324,2.324,0,1,0-1.648-.681A2.245,2.245,0,0,0,68.573,159.961Z" transform="translate(-61.103 -150)" fill="#171717"/>
</svg>
